<svg xmlns="http://www.w3.org/2000/svg" x="0px" y="0px"
width="400" height="400"
viewBox="0 0 172 172"
style=" fill:#000000;"><g transform="translate(2.58,2.58) scale(0.97,0.97)"><g fill="none" fill-rule="nonzero" stroke="none" stroke-width="none" stroke-linecap="none" stroke-linejoin="none" stroke-miterlimit="10" stroke-dasharray="" stroke-dashoffset="0" font-family="none" font-weight="none" font-size="none" text-anchor="none" style="mix-blend-mode: normal"><path d="M0,172v-172h172v172z" fill="none" stroke="none" stroke-width="1" stroke-linecap="butt" stroke-linejoin="miter"></path><g><path d="M120.4,32.68172h-67.08c-11.352,0 -20.64,9.288 -20.64,20.64v67.08c0,11.352 9.288,20.64 20.64,20.64h67.08c11.352,0 20.64,-9.288 20.64,-20.64v-67.08c0,-11.352 -9.288,-20.64 -20.64,-20.64z" fill="#ffca58" stroke="none" stroke-width="1" stroke-linecap="butt" stroke-linejoin="miter"></path><path d="M141.04,118.85888v10.1738c-6.88,5.12732 -10.32,8.56732 -12.0056,12.00732h-84.3488c-1.6856,-3.44 -6.8456,-8.6 -12.0056,-12.0056v-10.93748c15.31316,-4.47716 33.44884,-7.07092 52.90892,-7.07092c20.52648,-0.00172 39.60472,2.8982 55.45108,7.83288z" fill="#31c4f3" stroke="none" stroke-width="1" stroke-linecap="butt" stroke-linejoin="miter"></path><path d="M141.04,126.74508v2.28932c-5.16,5.1256 -10.32,8.5656 -12.0056,12.0056h-84.3488c-3.4056,-3.44 -6.8456,-6.88 -12.0056,-12.0056v-2.28932c12.56632,-4.93468 32.17776,-8.08916 54.18,-8.08916c22.02804,0 41.61368,3.15448 54.18,8.08916z" fill="#3070b7" stroke="none" stroke-width="1" stroke-linecap="butt" stroke-linejoin="miter"></path><path d="M141.04,102.91104v15.94956c-15.84636,-4.93468 -34.9246,-7.8346 -55.45108,-7.8346c-19.45836,0 -37.59576,2.59376 -52.90892,7.07092v-15.87216c15.6692,-4.14692 33.57612,-6.46032 52.90892,-6.46032c20.3734,-0.00172 39.22288,2.56796 55.45108,7.1466z" fill="#31c4f3" stroke="none" stroke-width="1" stroke-linecap="butt" stroke-linejoin="miter"></path><path d="M141.04,71.41956v31.48976c-16.2282,-4.57864 -35.07768,-7.14832 -55.45108,-7.14832c-19.33108,0 -37.23972,2.31512 -52.90892,6.46032v-31.38656c16.17832,-3.6378 33.95796,-5.59688 52.90892,-5.59688c19.96748,0.00172 38.61228,2.16376 55.45108,6.18168z" fill="#40a6dd" stroke="none" stroke-width="1" stroke-linecap="butt" stroke-linejoin="miter"></path><path d="M141.04,44.6856v26.73396c-16.8388,-4.01964 -35.4836,-6.18168 -55.45108,-6.18168c-18.95096,0 -36.7306,1.95908 -52.90892,5.59688v-26.14916c5.16,-3.4056 6.88,-6.8456 12.0056,-12.0056h84.3488c3.4056,5.16 6.8456,6.88 12.0056,12.0056z" fill="#3070b7" stroke="none" stroke-width="1" stroke-linecap="butt" stroke-linejoin="miter"></path><path d="M135.88,134.16c-2.03476,3.6636 -5.16,3.44 -6.8456,6.88h-84.3488c-1.6856,-3.44 -4.78504,-3.2164 -6.8456,-6.88c14.3964,-4.57864 29.07832,-6.60136 49.02,-6.60136c19.94168,0 34.6236,2.02272 49.02,6.60136z" fill="#3070b7" stroke="none" stroke-width="1" stroke-linecap="butt" stroke-linejoin="miter"></path><path d="M120.4,142.76172h-67.08c-12.3496,0 -22.36,-10.0104 -22.36,-22.36v-67.08c0,-12.3496 10.0104,-22.36 22.36,-22.36h67.08c12.3496,0 22.36,10.0104 22.36,22.36v67.08c0,12.3496 -10.01212,22.36 -22.36,22.36zM34.4,53.32172v67.08c0,10.449 8.471,18.92 18.92,18.92h67.08c10.449,0 18.92,-8.471 18.92,-18.92v-67.08c0,-10.449 -8.471,-18.92 -18.92,-18.92h-67.08c-10.45072,0 -18.92,8.471 -18.92,18.92z" fill="#1f212b" stroke="none" stroke-width="1" stroke-linecap="butt" stroke-linejoin="miter"></path><circle cx="50.5" cy="50.5" transform="scale(1.72,1.72)" r="25.5" fill="#ffffff" stroke="none" stroke-width="1" stroke-linecap="butt" stroke-linejoin="miter"></circle><path d="M118.68,58.48c0,0 -13.76,-13.76 -32.68,-13.76c-17.2,0 -29.24,12.04 -29.24,12.04c0,0 -10.32,10.32 -12.04,29.24c17.2,0 70.52,0 84.28,0c0,-12.04 -10.32,-27.52 -10.32,-27.52z" fill="#f05b6c" stroke="none" stroke-width="1" stroke-linecap="butt" stroke-linejoin="miter"></path><path d="M44.72,86.86c0,-23.27328 18.86672,-42.14 42.14,-42.14c23.27328,0 42.14,18.86672 42.14,42.14c0,23.27328 -18.86672,42.14 -42.14,42.14c-23.27328,0 -42.14,-18.86672 -42.14,-42.14z" fill="none" stroke="#1f212b" stroke-width="3.44" stroke-linecap="round" stroke-linejoin="round"></path><path d="M98.72284,118.2414c-3.68768,1.39492 -7.68668,2.1586 -11.86284,2.1586" fill="none" stroke="#1f212b" stroke-width="1" stroke-linecap="round" stroke-linejoin="round"></path><path d="M119.84272,92.98148c-1.8404,9.97944 -8.09948,18.4126 -16.67196,23.19248" fill="none" stroke="#1f212b" stroke-width="1" stroke-linecap="round" stroke-linejoin="round"></path><path d="M72.8764,56.3644c4.257,-1.95392 8.99216,-3.0444 13.9836,-3.0444" fill="none" stroke="#1f212b" stroke-width="1" stroke-linecap="round" stroke-linejoin="round"></path><path d="M65.75388,60.79168c1.03716,-0.84108 2.12764,-1.62196 3.26284,-2.33576" fill="none" stroke="#1f212b" stroke-width="1" stroke-linecap="round" stroke-linejoin="round"></path><path d="M57.09712,71.38344c1.44308,-2.7692 3.26112,-5.31136 5.38704,-7.5594" fill="none" stroke="#1f212b" stroke-width="1" stroke-linecap="round" stroke-linejoin="round"></path><path d="M45.58,85.14h82.56" fill="none" stroke="#1f212b" stroke-width="1" stroke-linecap="round" stroke-linejoin="round"></path><circle cx="50.5" cy="49.5" transform="scale(1.72,1.72)" r="7" fill="none" stroke="#1f212b" stroke-width="1" stroke-linecap="round" stroke-linejoin="round"></circle><circle cx="50.5" cy="49.5" transform="scale(1.72,1.72)" r="6.5" fill="#ffffff" stroke="none" stroke-width="1" stroke-linecap="butt" stroke-linejoin="miter"></circle></g></g></g></svg>